<svg xmlns="http://www.w3.org/2000/svg" viewBox="0 0 24 24">
<path fill-rule="evenodd" d="M20.5012 3.48755C19.3942 2.37799 18.0767 1.49833 16.6252 0.899638C15.1737 0.300951 13.6172 -0.00482784 12.046 5.76299e-05C5.45995 5.76299e-05 0.0994911 5.33404 0.0994911 11.892C0.0994911 13.9875 0.651214 16.0365 1.69587 17.8365L0 24L6.33577 22.3455C8.08736 23.2949 10.0499 23.793 12.0445 23.7945H12.049C18.635 23.7945 24 18.4605 24 11.9025C24.004 10.3396 23.6967 8.79135 23.0959 7.34726C22.4951 5.90317 21.6127 4.59184 20.4997 3.48905L20.5012 3.48755ZM12.049 21.7875C10.2689 21.7878 8.52156 21.3117 6.99 20.409L6.62671 20.193L2.86715 21.1725L3.87111 17.526L3.63595 17.151C2.63765 15.5772 2.1101 13.7531 2.11494 11.892C2.11813 9.27017 3.16656 6.75667 5.03012 4.90315C6.89368 3.04964 9.42013 2.00754 12.055 2.00555C14.7066 2.00555 17.2044 3.03755 19.0782 4.90205C20.0028 5.81882 20.7358 6.90884 21.2346 8.10913C21.7335 9.30941 21.9883 10.5962 21.9845 11.895C21.98 17.3505 17.524 21.786 12.049 21.786V21.7875ZM17.4954 14.382C17.1984 14.232 15.7286 13.515 15.4558 13.416C15.1829 13.317 14.984 13.266 14.782 13.566C14.5845 13.8615 14.0102 14.532 13.8353 14.733C13.6604 14.9295 13.4871 14.958 13.1901 14.808C12.8931 14.658 11.9269 14.3445 10.7872 13.332C9.90087 12.5445 9.2994 11.5695 9.12454 11.274C8.94967 10.9785 9.10494 10.815 9.25719 10.6695C9.39437 10.5375 9.55416 10.323 9.7049 10.149C9.85565 9.97503 9.90238 9.85353 10.0019 9.65253C10.1014 9.45604 10.0531 9.28204 9.97775 9.13204C9.90238 8.98204 9.30392 7.51954 9.05972 6.92404C8.82004 6.34204 8.5698 6.42304 8.38589 6.41254C8.21103 6.40354 8.01355 6.40354 7.81608 6.40354C7.6186 6.40354 7.293 6.47854 7.02015 6.77404C6.7473 7.06954 5.97399 7.79104 5.97399 9.25354C5.97399 10.716 7.04276 12.1275 7.19351 12.3285C7.34425 12.525 9.2994 15.5295 12.2947 16.815C13.0062 17.1195 13.5624 17.3025 13.9951 17.4435C14.7111 17.6685 15.3608 17.6355 15.8749 17.5605C16.4492 17.4765 17.6416 16.8435 17.8918 16.149C18.142 15.4545 18.142 14.8605 18.0667 14.7375C17.9958 14.6055 17.7983 14.532 17.4969 14.3805L17.4954 14.382Z" />
</svg>
