<svg width="85" height="16" viewBox="0 0 85 16" fill="none" xmlns="http://www.w3.org/2000/svg">
<path d="M38 14.183C36.6 14.183 35.1 14.183 33.7 14.183C33.9 13.2418 34.2 12.3006 34.4 11.3595C35.3 7.90848 36.1 4.35292 37 0.901943C37 0.588218 37.1 0.483643 37.4 0.483643C38.6 0.483643 39.8 0.483643 41 0.483643C41.1 0.483643 41.2 0.483643 41.4 0.483643C40.6 3.83005 39.8 7.07188 38.9 10.4183C39.7 10.2091 40.4 9.99998 41.1 9.79083C42.9 9.37253 44.6 9.37253 46.4 9.47711C49.7 9.79083 52.8 10.6274 56 11.3595C58.6 11.8823 61.1 12.4052 63.7 12.9281C66.6 13.451 69.6 13.7647 72.5 13.5555C75.8 13.451 79.1 12.9281 82.2 11.5686C82.5 11.464 82.8 11.2549 83.1 11.1503C83.4 10.9412 83.7 10.8366 84 10.6274C84.2 11.464 84.4 12.1961 84.6 13.1372C83.2 13.5555 81.9 14.0784 80.6 14.4967C78.8 15.0196 76.9 15.3333 75 15.5425C72.6 15.8562 70.2 15.8562 67.8 15.7516C63.8 15.5425 59.9 14.8104 56 13.6601C53.7 13.0327 51.3 12.5098 49 12.1961C47.2 11.9869 45.3 11.7778 43.5 11.9869C41.6 12.0915 39.8 12.6144 38.2 13.7647C38.1 13.8693 38 13.9738 38 14.0784C38 13.9738 38 14.0784 38 14.183Z" fill="#FFF200"/>
<path d="M16.5 1.0066C16.2 1.63405 16 2.15693 15.8 2.78438C15 2.57523 14.2 2.36608 13.5 2.2615C11 1.8432 8.8 2.47065 7.1 4.45758C6.3 5.39876 5.6 6.44451 5.4 7.80398C5.2 8.84974 5.2 9.79091 5.5 10.8367C5.9 12.5099 7.5 13.2419 9 12.5099C10.3 11.8824 10.9 10.7321 11 9.37261C11.1 8.53601 10.5 7.90856 9.5 7.80398C9.2 7.80398 8.9 7.80399 8.6 7.69941C8.8 7.17653 8.9 6.75823 9.1 6.44451C9.1 6.33993 9.2 6.33993 9.3 6.33993C11.5 6.33993 13.6 6.33993 15.8 6.33993C15.5 7.49026 15.3 8.53601 15 9.58176C14.7 10.7321 14.4 11.7778 14.2 12.9282C14.2 13.1373 14.1 13.2419 13.9 13.2419C11.7 13.7648 9.6 14.2876 7.3 14.1831C5.6 14.0785 4 13.7648 2.6 12.5099C1.3 11.255 0.799998 9.79091 0.999998 8.01313C1.1 7.49026 1.1 6.86281 1.2 6.33993C1.4 5.29418 2 4.56215 2.7 3.9347C4.7 2.05235 7 1.0066 9.5 0.692874C11.1 0.483723 12.7 0.483723 14.3 0.692874C14.9 0.797449 15.6 0.902024 16.2 1.0066C16.3 0.902024 16.4 1.0066 16.5 1.0066Z" fill="#FFF200"/>
<path d="M33.7 0.588218C33.6 1.11109 33.5 1.63397 33.3 2.15685C33.2 2.15685 33 2.15685 32.9 2.15685C30.6 2.15685 28.2 2.15685 25.9 2.15685C25.3 2.15685 25.3 2.15685 25.1 2.7843C24.9 3.72547 24.6 4.77122 24.4 5.7124C24.3 6.23528 24.3 6.23528 24.8 6.23528C27.1 6.23528 29.3 6.23528 31.6 6.23528C31.7 6.23528 31.8 6.23528 31.9 6.23528C31.8 6.75815 31.6 7.28103 31.5 7.90848C31.4 7.90848 31.3 7.90848 31.1 7.90848C29.6 7.90848 28.1 7.90848 26.6 7.90848C24.7 7.8039 23.2 9.37253 22.9 11.3595C22.9 11.6732 22.8 12.0915 22.8 12.5098C25.5 12.5098 28.2 12.5098 30.9 12.5098C30.8 13.0327 30.6 13.5555 30.5 14.0784C30.5 14.183 30.3 14.183 30.2 14.183C29.7 14.183 29.3 14.183 28.8 14.183C25.2 14.183 21.6 14.183 18 14.183C17.9 14.183 17.7 14.183 17.6 14.183C17.8 13.2418 18 12.4052 18.3 11.464C19.2 7.90848 20.1 4.35292 21 0.797368C21.1 0.588218 21.1 0.483643 21.3 0.483643C25.3 0.483643 29.4 0.483643 33.4 0.483643C33.5 0.483643 33.6 0.483643 33.7 0.588218Z" fill="#FFF200"/>
<path d="M76.4 7.1765C75.5 7.80395 74.8 7.69937 74.3 7.07192C73.8 6.44447 73.9 5.18957 74.4 4.6667C74.9 4.14382 75.8 4.24839 76.4 4.87585C76.4 4.77127 76.4 4.56212 76.5 4.45754C76.9 4.45754 77.2 4.45754 77.7 4.45754C77.7 4.6667 77.7 4.87585 77.7 4.98042C77.7 5.81702 77.7 6.65362 77.7 7.38565C77.7 8.32683 77.3 8.95428 76.4 8.95428C75.9 8.95428 75.3 8.95428 74.8 8.8497C74.2 8.8497 74 8.4314 74.1 7.80395C74.5 7.80395 74.8 7.90852 75.2 7.90852C75.3 7.90852 75.3 8.0131 75.4 8.0131C75.6 8.11768 75.8 8.22225 76 8.22225C76.2 8.22225 76.4 8.0131 76.4 7.80395C76.3 7.5948 76.3 7.38565 76.4 7.1765ZM76.4 6.02617C76.4 5.60787 76.1 5.29415 75.8 5.29415C75.5 5.29415 75.2 5.60787 75.3 6.13075C75.3 6.54905 75.5 6.86277 75.9 6.86277C76.1 6.7582 76.4 6.44447 76.4 6.02617Z" fill="#FFF200"/>
<path d="M54.7 3.09802C55.1 3.09802 55.5 3.09802 55.9 3.09802C55.9 3.6209 55.9 4.14377 55.9 4.77123C56 4.66665 56.1 4.56207 56.2 4.56207C56.6 4.24835 57 4.24835 57.4 4.35292C57.8 4.4575 58.1 4.77123 58.1 5.18953C58.1 6.02613 58.1 6.86273 58.1 7.69933C57.7 7.69933 57.3 7.69933 56.9 7.69933C56.9 7.28103 56.9 6.9673 56.9 6.549C56.9 6.33985 56.9 6.02613 56.9 5.81698C56.9 5.50325 56.8 5.39868 56.5 5.2941C56.2 5.2941 56 5.39868 56 5.7124C56 6.02613 56 6.44443 56 6.75815C56 7.07188 56 7.3856 56 7.69933C55.6 7.69933 55.2 7.69933 54.8 7.69933C54.7 6.23528 54.7 4.66665 54.7 3.09802Z" fill="#FFF200"/>
<path d="M43.1 7.69933C43.1 6.549 43.1 5.39868 43.1 4.24835C42.6 4.24835 42.2 4.24835 41.7 4.24835C41.7 3.83005 41.7 3.51632 41.7 3.09802C43.1 3.09802 44.5 3.09802 45.9 3.09802C45.9 3.41175 45.9 3.83005 45.9 4.14377C45.4 4.14377 45 4.14377 44.5 4.14377C44.5 5.2941 44.5 6.44443 44.5 7.59475C44.1 7.69933 43.6 7.69933 43.1 7.69933Z" fill="#FFF200"/>
<path d="M78.3 8.22219C78.6 8.22219 78.8 8.22219 79 8.22219C79.4 8.11761 79.5 7.90846 79.4 7.49016C79 6.54898 78.6 5.71238 78.3 4.77121C78.3 4.66663 78.2 4.56206 78.2 4.45748C78.6 4.45748 79 4.45748 79.4 4.45748C79.5 4.45748 79.6 4.56206 79.6 4.66663C79.8 5.18951 80 5.81696 80.1 6.33983C80.1 6.44441 80.2 6.44441 80.2 6.54898C80.4 5.92153 80.6 5.29408 80.7 4.66663C80.8 4.45748 80.8 4.35291 81.1 4.35291C81.4 4.35291 81.7 4.35291 82 4.35291C82 4.45748 82 4.45748 82 4.56206C81.6 5.71238 81.1 6.96728 80.7 8.11761C80.4 8.95421 79.3 9.37251 78.5 8.95421C78.4 8.95421 78.4 8.84964 78.4 8.74506C78.4 8.64049 78.4 8.43134 78.3 8.22219Z" fill="#FFF200"/>
<path d="M59.1 4.45747C59.5 4.45747 59.8 4.45747 60.2 4.45747C60.2 4.56205 60.2 4.7712 60.2 4.87577C60.3 4.7712 60.4 4.7712 60.4 4.66662C60.8 4.24832 61.3 4.24832 61.8 4.3529C62.2 4.45747 62.4 4.7712 62.5 5.1895C62.5 6.0261 62.5 6.8627 62.5 7.6993C62.1 7.6993 61.7 7.6993 61.3 7.6993C61.3 7.17643 61.3 6.65355 61.3 6.13068C61.3 6.0261 61.3 5.81695 61.3 5.71237C61.2 5.50322 61.1 5.29407 61 5.29407C60.8 5.1895 60.6 5.29407 60.5 5.50322C60.4 5.71237 60.4 5.81695 60.4 6.0261C60.4 6.54898 60.4 7.07185 60.4 7.59473C60 7.59473 59.6 7.59473 59.2 7.59473C59.1 6.65355 59.1 5.50322 59.1 4.45747Z" fill="#FFF200"/>
<path d="M49.9 6.33983C49 6.33983 48.2 6.33983 47.4 6.33983C47.4 6.86271 47.9 7.28101 48.3 6.96728C48.7 6.75813 49 6.86271 49.4 6.86271C49.5 6.86271 49.6 6.86271 49.8 6.96728C49.6 7.38558 49.3 7.69931 48.9 7.69931C48.4 7.80389 47.8 7.80389 47.3 7.69931C46.4 7.59474 46 6.75813 46 5.92153C46.1 5.08493 46.7 4.45748 47.5 4.35291C47.8 4.35291 48.2 4.35291 48.5 4.35291C49.5 4.56206 49.9 5.18951 49.9 6.33983ZM48.6 5.81696C48.6 5.29408 48.3 5.08493 47.9 5.08493C47.5 5.08493 47.3 5.39866 47.4 5.81696C47.8 5.81696 48.2 5.81696 48.6 5.81696Z" fill="#FFF200"/>
<path d="M71.5 7.80389C71.2 7.69931 70.9 7.69931 70.6 7.59474C69.9 7.28101 69.5 6.54898 69.6 5.71238C69.7 4.98036 70.4 4.35291 71.1 4.35291C71.5 4.35291 71.8 4.35291 72.2 4.45748C73.1 4.66663 73.5 5.39866 73.4 6.23526C73.3 7.17643 72.7 7.80389 71.8 7.80389C71.8 7.80389 71.7 7.80389 71.5 7.80389ZM70.9 6.02611C70.9 6.13068 70.9 6.13068 70.9 6.23526C70.9 6.65356 71.2 6.96728 71.5 6.96728C71.9 6.96728 72.1 6.75813 72.1 6.33983C72.1 6.13068 72.1 6.02611 72.1 5.81696C72.1 5.39866 71.8 5.18951 71.5 5.18951C71.2 5.18951 70.9 5.50323 70.9 5.81696C70.9 5.92153 70.9 6.02611 70.9 6.02611Z" fill="#FFF200"/>
<path d="M65.1 4.35291C66.1 4.35291 66.7 4.77121 66.9 5.60781C67.2 6.65356 66.5 7.69931 65.5 7.80389C65.1 7.80389 64.6 7.80389 64.2 7.69931C63.4 7.49016 63 6.65356 63.1 5.92153C63.2 5.08493 63.9 4.45748 64.7 4.45748C64.8 4.35291 65 4.35291 65.1 4.35291ZM65.8 6.02611C65.8 5.81696 65.8 5.71238 65.7 5.50323C65.5 5.08493 65 4.98036 64.7 5.29408C64.4 5.60781 64.4 6.44441 64.7 6.75813C65 7.07186 65.5 6.96728 65.6 6.54898C65.7 6.44441 65.7 6.23526 65.8 6.02611Z" fill="#FFF200"/>
<path d="M54.1 5.39878C53.8 5.39878 53.4 5.50336 53.1 5.50336C53 5.50336 52.9 5.39878 52.8 5.39878C52.5 4.98048 51.8 5.08506 51.7 5.50336C51.6 5.81708 51.6 6.23538 51.6 6.44453C51.7 6.96741 52.5 7.07198 52.8 6.65368C52.9 6.44453 53.1 6.44453 53.3 6.44453C53.6 6.44453 53.8 6.54911 54.1 6.54911C54 7.17656 53.5 7.69944 52.8 7.69944C52.4 7.69944 52 7.69944 51.6 7.59486C50.9 7.49029 50.4 6.86283 50.4 6.23538C50.3 5.29421 50.7 4.56218 51.5 4.35303C52.1 4.14388 52.7 4.14388 53.3 4.35303C53.7 4.56218 53.9 4.98048 54.1 5.39878Z" fill="#FFF200"/>
<path d="M67.7 7.69933C67.7 6.1307 67.7 4.66665 67.7 3.09802C68.1 3.09802 68.5 3.09802 68.9 3.09802C68.9 4.56207 68.9 6.1307 68.9 7.69933C68.5 7.69933 68.1 7.69933 67.7 7.69933Z" fill="#FFF200"/>
</svg>
