<?xml version="1.0" encoding="utf-8"?>
<!-- Generator: Adobe Illustrator 24.0.1, SVG Export Plug-In . SVG Version: 6.00 Build 0)  -->
<svg version="1.2" baseProfile="tiny" id="Layer_1" xmlns="http://www.w3.org/2000/svg" xmlns:xlink="http://www.w3.org/1999/xlink"
	 x="0px" y="0px" viewBox="0 0 100 23" xml:space="preserve">
<g id="XMLID_5_">
	<path fill="#FFF200" d="M13.6,17.5l9.7-17.2l-5.4,0l-4.6,7.6c0,0.1-0.2,0.2-0.4,0.3c-0.2,0.1-0.4,0.2-0.6,0.2l-2,0l4.5-8.1L9,0.4
		L0,17.5l5.3,0l3.8-7.3l2.8,0L8,17.5L13.6,17.5z M30.2,8.5l-4.6,7.2h-2.8l4.7-7.2l-3.3,0c-0.4,0-0.8,0-1.1,0.1
		c-0.3,0.1-0.7,0.2-1.1,0.4c-0.8,0.4-1.4,0.9-1.7,1.5l-3,5.9c-0.1,0.1-0.1,0.2-0.1,0.3c0,0.3,0.2,0.5,0.7,0.7
		c0.4,0.2,0.7,0.3,0.9,0.3l6,0l-0.4,1.8c-0.5,1-1.4,1.4-2.8,1.4l-7,0L13,22.6l11.9,0c1.4,0,2.5-0.3,3.3-0.8c0.3-0.2,0.5-0.5,0.8-0.8
		l6.7-12.5L30.2,8.5z M52.2,9.4c0-0.3-0.2-0.5-0.6-0.7c-0.4-0.2-0.8-0.3-1-0.3l-6,0L49,0.4h-2.9c-0.4,0-0.8,0-1.1,0.1
		c-0.3,0.1-0.7,0.2-1.1,0.4c-0.8,0.4-1.4,0.9-1.7,1.5l-9.1,15.2l12,0c0.4,0,0.8,0,1.1-0.1c0.3-0.1,0.7-0.2,1.1-0.4
		c0.8-0.4,1.4-0.9,1.7-1.5l3-5.9C52.1,9.6,52.2,9.5,52.2,9.4z M43.1,15.5c0,0.1-0.2,0.2-0.4,0.3c-0.2,0.1-0.4,0.2-0.6,0.2l-3,0
		c0.8-0.4,1.7-1.2,2.1-1.8l2.5-4.2l2.8,0L43.1,15.5z M65.8,8.5l-10.4,0l-5.4,9.1l3.1,0c1.9,0,3.2-0.7,3.9-2l2.9-6
		c0.6,0,1.1,0.1,1.4,0.3c0.3,0.2,0.5,0.8,0.5,1.1c0,0.1,0,0.2-0.1,0.4l-0.4,1.3h5.3l1.2-1.8c0.1-0.1,0.2-0.2,0.2-0.4
		c0.1-0.2,0.1-0.4,0.1-0.6c0-0.4-0.1-0.7-0.4-0.9C67.3,8.6,66.7,8.5,65.8,8.5z M83,0.4l-5.5,0l-2.3,3.8l5.5,0L83,0.4z M77.3,10.5
		c0.1-0.2,0.2-0.4,0.2-0.7c0-0.4-0.1-0.7-0.4-0.9c-0.4-0.3-1-0.4-1.9-0.4H69v0.3c1.1,0,1.9,0.1,2.4,0.4C71.8,9.4,72,9.6,72,10
		c0,0.1,0,0.3-0.1,0.4l-3.8,7.1l5.4,0l3.6-6.6C77.2,10.8,77.2,10.7,77.3,10.5z M100,0.7c0,0,0-0.1-0.2-0.3c-0.2-0.1-0.7-0.1-0.7-0.1
		h-2.2c-0.4,0-0.8,0-1.1,0.1c-0.3,0.1-0.7,0.2-1.1,0.4c-0.8,0.4-1.4,0.9-1.7,1.5l-3.4,6.1l-5.7,0c-0.4,0-0.8,0-1.1,0.1
		c-0.3,0.1-0.7,0.2-1.1,0.4c-0.8,0.4-1.4,0.9-1.7,1.5l-3.8,7.1l11.4,0c0.4,0,0.8,0,1.1-0.1c0.3-0.1,0.7-0.2,1.1-0.4
		c0.8-0.4,1.4-0.9,1.7-1.5L95.1,9l4.4-7.6c0-0.1,0.1-0.2,0.4-0.3C100.1,0.9,100,0.8,100,0.7z M85.6,15.5c0,0.1-0.1,0.2-0.4,0.3
		c-0.3,0.1-0.5,0.2-0.7,0.2l-1.9,0l3.3-5.4c0-0.1,0.2-0.2,0.4-0.3c0.2-0.1,0.4-0.2,0.6-0.2h1.9L85.6,15.5z"/>
</g>
</svg>
