<?xml version="1.0" encoding="utf-8"?>
<!-- Generator: Adobe Illustrator 24.0.1, SVG Export Plug-In . SVG Version: 6.00 Build 0)  -->
<svg version="1.2" baseProfile="tiny" id="Layer_1" xmlns="http://www.w3.org/2000/svg" xmlns:xlink="http://www.w3.org/1999/xlink"
	 x="0px" y="0px" viewBox="0 0 100 14" xml:space="preserve">
<g>
	<path fill="#FFF200" d="M100,5.7c-0.1,0.2-0.2,0.4-0.3,0.6c-0.6,2.2-1.2,4.4-1.8,6.5c-0.1,0.4-0.3,0.6-0.7,0.6c-0.8,0-1.7,0-2.6,0
		c0.6-2.3,1.2-4.4,1.7-6.6c0,0-0.1,0-0.1,0c-0.1,0.2-0.2,0.3-0.3,0.5c-1,1.9-2.1,3.8-3.1,5.7c-0.2,0.3-0.4,0.4-0.7,0.4
		c-1.1,0-2.1,0-3.3,0c0.3-2.3,0.6-4.5,1-6.7c0,0-0.1,0-0.1,0c-0.1,0.2-0.2,0.4-0.3,0.6c-0.7,1.9-1.5,3.7-2.2,5.6
		c-0.2,0.5-0.4,0.7-0.9,0.5c0-0.1,0.1-0.3,0.1-0.4c0.9-2.3,1.8-4.6,2.7-6.9c0.2-0.4,0.4-0.6,0.8-0.5c1.1,0,2.2,0,3.3,0
		c-0.3,2.2-0.6,4.4-1,6.6c0,0,0.1,0,0.1,0c0.1-0.2,0.2-0.4,0.3-0.6c1-1.9,2-3.7,3-5.6c0.2-0.4,0.4-0.5,0.8-0.5c1.1,0,2.2,0,3.3,0
		C100,5.5,100,5.6,100,5.7z"/>
	<path fill="#FFF200" d="M78.3,13.6c-0.3-0.1-0.7-0.1-1-0.2c-0.6-0.2-0.8-0.5-0.6-1.1c0.5-1.6,1.1-3.2,1.7-4.8
		c0.2-0.7,0.3-1.6,0.8-1.9c0.5-0.3,1.4-0.1,2-0.1c0.3,0,0.7,0,1.1,0c-0.1,0.3-0.1,0.5-0.2,0.7c-0.7,1.9-1.3,3.7-2,5.6
		c-0.1,0.4-0.5,0.9,0.1,1.3c0.5,0.3,1.7,0.1,2-0.4c0.2-0.4,0.4-0.9,0.6-1.4c0.6-1.7,1.2-3.4,1.8-5.2c0.2-0.5,0.4-0.6,0.9-0.6
		c0.8,0,1.7,0,2.6,0c-0.5,1.4-0.9,2.7-1.4,4c-0.3,0.9-0.6,1.7-0.9,2.6c-0.3,0.9-0.9,1.4-1.8,1.4c-0.2,0-0.3,0.1-0.5,0.1
		C81.7,13.6,80,13.6,78.3,13.6z"/>
	<path fill="#FFF200" d="M26.7,13.6c-0.2,0-0.3-0.1-0.5-0.1c-0.9-0.2-1.2-0.6-1-1.5c0.2-0.8,0.4-1.5,0.7-2.2c0.3-1,0.7-1.9,1.1-2.9
		c0.3-0.9,1-1.4,2-1.4c1.8,0,3.5-0.1,5.3-0.1c1.4,0,1.8,0.7,1.4,2c-0.5,1.5-1,3-1.5,4.5c-0.3,0.9-0.9,1.5-1.9,1.6
		c-0.1,0-0.2,0.1-0.3,0.1C30.1,13.6,28.4,13.6,26.7,13.6z M29.2,13.2c0.8,0.1,1.3-0.3,1.6-1.1c0.2-0.4,0.3-0.8,0.5-1.3
		c0.4-1.3,0.9-2.6,1.3-3.9c0.2-0.6,0-1-0.5-1.1C31,5.5,30.3,5.9,29.9,7c-0.6,1.6-1.2,3.2-1.7,4.8C27.9,12.9,28.1,13.1,29.2,13.2z"/>
	<path fill="#FFF200" d="M0.9,0.5c2,0,4,0,6,0c2.8,0,5.6-0.1,8.4-0.1c2,0,2.6,0.7,2,2.7c-0.3,1.1-0.8,2.2-1.2,3.2
		c-0.5,1.1-1.4,1.5-2.5,1.6C12.2,8,10.7,8,9.2,8c-0.7,0-1.5-0.2-2,0.2C6.8,8.5,6.7,9.4,6.5,10c-0.4,1-0.7,2-1.1,2.9
		c-0.1,0.2-0.3,0.4-0.4,0.4c-1.6,0-3.3,0-5,0c0.2-0.5,0.3-1,0.4-1.4c1-2.9,1.9-5.8,2.9-8.7c0.1-0.4,0.1-0.6-0.3-0.9
		C2.3,1.8,1.6,1.2,0.8,0.6C0.8,0.6,0.9,0.6,0.9,0.5z M7.4,7.6C8.2,7.5,9,7.4,9.7,7.3c0.6-0.1,1.1-0.4,1.3-1c0.4-1.2,0.8-2.5,1.1-3.8
		c0.2-0.8-0.1-1.2-0.9-1.2c-1.3-0.1-2.7-0.1-4-0.1c-0.2,0-0.3,0.3-0.5,0.6c0.4,0,0.6,0,0.8,0.1c0.2,0,0.4,0,0.7,0.1
		C8.8,2.1,9,2.5,8.9,3.1C8.8,3.4,8.7,3.6,8.6,3.9C8.2,5,7.8,6.2,7.4,7.6z"/>
	<path fill="#FFF200" d="M39.1,0.5c3,0,5.7,0,8.6,0c-0.5,1.3-0.9,2.6-1.3,3.8c-0.7,1.9-1.3,3.8-2,5.7c-0.7,1.8-0.8,1.9-2.7,1.9
		c-0.4,0-0.7,0.1-0.7,0.8c2.5-0.1,5-0.2,7.5-0.4c-0.1,1-0.1,1-1.1,1c-2.9,0-5.9,0-8.8,0c-0.2,0-0.4,0-0.7,0c0.1-0.3,0.1-0.5,0.2-0.7
		c1.1-3.2,2.1-6.4,3.2-9.6c0.2-0.6,0.2-0.9-0.4-1.2C40.3,1.5,39.8,1,39.1,0.5z"/>
	<path fill="#FFF200" d="M68.5,9.9c-0.8,0-1.4,0-2,0c-0.2,0-0.4,0.2-0.5,0.4c-0.3,0.9-0.6,1.8-1,2.7c-0.1,0.2-0.3,0.4-0.5,0.4
		c-0.9,0-1.9,0-2.9,0c0.1-0.2,0.1-0.4,0.2-0.6c0.8-2.3,1.6-4.5,2.4-6.8c0.1-0.4,0.3-0.6,0.8-0.6c0.9,0,1.7,0,2.7,0
		c-0.4,1.2-0.8,2.4-1.3,3.7c0.8,0,1.5,0,2.2,0c0.1,0,0.3-0.3,0.4-0.4c0.3-0.9,0.7-1.8,1-2.8c0.1-0.4,0.3-0.5,0.7-0.5
		c0.9,0,1.8,0,2.7,0c0,0.2-0.1,0.4-0.1,0.5c-0.8,2.3-1.6,4.6-2.4,6.9c-0.1,0.4-0.3,0.5-0.7,0.5c-0.9,0-1.8,0-2.7,0
		C67.7,12.2,68.1,11.1,68.5,9.9z"/>
	<path fill="#FFF200" d="M15.1,13.4c0.5-1.4,0.9-2.7,1.4-4c0.4-1.2,0.8-2.3,1.2-3.5c0.1-0.2,0.3-0.4,0.5-0.4c2.2,0,4.4-0.1,6.6-0.1
		c0.9,0,1.2,0.4,1,1.3c0,0.2-0.1,0.3-0.1,0.5c-0.6,2-0.9,2.3-3,2.4c-0.4,0-0.7,0.1-1.1,0.2C22.1,9.9,22.6,10,23,10
		c0.6,0,0.8,0.4,0.7,0.9c0,0.7-0.1,1.3-0.1,2c0,0.3-0.1,0.5-0.5,0.5c-0.7,0-1.4,0-2.1,0c-0.4,0-0.6-0.2-0.6-0.6c0-0.7,0.1-1.3,0.1-2
		c0-0.2,0.1-0.4,0-0.5c-0.1-0.2-0.4-0.4-0.6-0.4c-0.1,0-0.3,0.2-0.4,0.3c-0.3,0.9-0.7,1.8-1,2.8c-0.1,0.3-0.3,0.5-0.6,0.5
		C17,13.4,16.1,13.4,15.1,13.4z M19.2,6.2c0.2,0.1,0.2,0.1,0.3,0.1c1.2,0.2,1.2,0.2,0.9,1.4c-0.2,0.6-0.4,1.1-0.5,1.7
		c1.6,0.2,2.1-0.1,2.6-1.6c0.1-0.3,0.2-0.5,0.2-0.8c0.2-0.8-0.1-1.1-0.8-1.1c-0.7,0-1.4,0-2,0C19.6,5.9,19.4,6.1,19.2,6.2z"/>
	<path fill="#FFF200" d="M63.5,5.5C63.5,6,63.3,6.1,63,6c-1.6-0.1-1.6-0.1-2.1,1.4c-0.6,1.8-1.3,3.6-1.9,5.5
		c-0.1,0.4-0.3,0.5-0.7,0.5c-0.9,0-1.8,0-2.7,0c0-0.1,0-0.2,0-0.3c0.7-1.9,1.4-3.8,2-5.7c0.2-0.7,0.7-1.1,1.4-1
		c0.2,0,0.4-0.1,0.6-0.2c0-0.1,0-0.1,0-0.2c-1.3,0-2.7,0-4,0c0-0.5,0-0.5,0.5-0.5c2.4,0,4.8,0,7.2,0C63.4,5.5,63.4,5.5,63.5,5.5z"/>
	<path fill="#FFF200" d="M55.1,5.5c-0.9,2.6-1.8,5.1-2.7,7.6c-0.1,0.1-0.3,0.3-0.4,0.3c-0.9,0-1.9,0-2.9,0c0-0.2,0.1-0.4,0.1-0.5
		c0.8-2.3,1.6-4.6,2.4-6.9c0.1-0.4,0.3-0.5,0.7-0.5C53.2,5.5,54.1,5.5,55.1,5.5z"/>
	<path fill="#FFF200" d="M77.7,5.5c-0.9,2.6-1.8,5.1-2.7,7.6c0,0.1-0.2,0.3-0.4,0.3c-1,0-1.9,0-2.9,0c0-0.2,0.1-0.3,0.1-0.5
		c0.8-2.3,1.7-4.7,2.5-7c0.1-0.3,0.3-0.4,0.6-0.4C75.8,5.5,76.7,5.5,77.7,5.5z"/>
</g>
</svg>
