<svg width="102" height="15" viewBox="0 0 102 15" fill="none" xmlns="http://www.w3.org/2000/svg">
<path d="M30.0395 12.5705C30.0395 11.7937 30.0395 11.211 30.0395 10.6284C30.0395 10.4342 29.8645 10.24 29.6896 10.24C28.2901 10.24 26.8906 10.24 25.3162 10.24C25.3162 11.0168 25.3162 11.5994 25.3162 12.1821C25.3162 12.5705 25.1412 12.7647 24.9663 12.9589C24.4415 13.3473 23.7417 13.7358 23.042 14.1242C23.042 13.93 23.042 13.7358 23.042 13.5416C23.042 11.4052 23.042 9.0747 23.042 6.93838C23.042 6.74417 23.2169 6.35575 23.3919 6.16153C24.2666 4.80206 25.3162 4.41364 26.7157 4.60785C27.9402 4.41364 28.9898 4.41364 30.2144 4.41364C30.3893 4.41364 30.7392 4.60785 30.9142 4.80206C31.9638 5.5789 32.4886 6.74417 32.3136 8.29785C32.1387 9.65733 32.3136 11.0168 32.3136 12.3763C32.3136 12.3763 32.3136 12.3763 32.3136 12.5705C31.439 12.5705 30.7392 12.5705 30.0395 12.5705ZM30.0395 6.16153C28.465 6.16153 26.8906 6.16153 25.4911 6.16153C25.4911 6.93838 25.4911 7.52101 25.4911 8.29785C26.8906 8.29785 28.465 8.29785 29.8645 8.29785C29.8645 8.29785 30.0395 8.10364 30.0395 7.90943C30.0395 7.52101 30.0395 6.93838 30.0395 6.16153Z" fill="#FFF200"/>
<path d="M33.8882 4.4136C35.8125 4.4136 37.5619 4.4136 39.4862 4.4136C40.1859 4.4136 40.8857 4.21939 41.4105 4.60781C41.9353 4.99624 42.1102 5.77308 42.4601 6.35571C42.81 6.93835 43.1598 7.52098 43.3348 8.29782C43.5097 8.49204 43.5097 8.88046 43.3348 9.07467C42.81 10.2399 42.2852 11.4052 41.5854 12.3763C41.5854 12.5705 41.2355 12.7647 41.0606 12.7647C38.7864 12.7647 36.3373 12.7647 34.0631 12.7647C34.0631 12.7647 34.0631 12.7647 33.8882 12.7647C33.8882 9.85151 33.8882 7.13256 33.8882 4.4136ZM36.1624 10.8226C37.3869 10.8226 38.6115 10.8226 39.6611 10.8226C39.836 10.8226 40.011 10.6284 40.011 10.6284C41.2355 8.68625 41.2355 8.49204 40.011 6.54993C40.011 6.35571 39.836 6.35571 39.6611 6.35571C38.4365 6.35571 37.212 6.35571 35.9874 6.35571C36.1624 7.71519 36.1624 9.26888 36.1624 10.8226Z" fill="#FFF200"/>
<path d="M10.6207 10.8226C10.0959 10.8226 9.57112 10.8226 9.04631 10.8226C9.74606 11.4052 10.4458 11.9879 11.1456 12.5705C10.0959 12.3763 8.87138 12.9589 7.99669 12.3763C7.47188 12.3763 7.12201 12.5705 6.77213 12.5705C5.54757 12.5705 4.49795 12.5705 3.27339 12.5705C2.92352 12.5705 2.57365 12.3763 2.39871 12.1821C1.34909 11.4052 0.824278 10.24 0.999215 8.68628C0.999215 8.49207 0.999215 8.49207 0.999215 8.29786C0.999215 6.16153 0.999215 6.16153 2.39871 4.60785C2.57365 4.41364 2.92352 4.41364 3.09846 4.41364C5.02276 4.41364 6.77213 4.41364 8.69644 4.41364C8.87138 4.41364 9.04631 4.41364 9.22125 4.60785C9.57112 4.99627 10.0959 5.38469 10.4458 5.96732C10.6207 6.16153 10.6207 6.16153 10.6207 6.35575C10.6207 7.90943 10.6207 9.26891 10.6207 10.8226ZM3.27339 10.8226C5.02276 10.8226 6.77213 10.8226 8.34656 10.8226C8.34656 9.26891 8.34656 7.71522 8.34656 6.16153C6.5972 6.16153 5.02276 6.16153 3.27339 6.16153C3.27339 7.71522 3.27339 9.26891 3.27339 10.8226Z" fill="#FFF200"/>
<path d="M72.7241 11.0168C72.1993 11.5994 71.8494 11.9878 71.3246 12.5704C71.3246 12.5704 71.1497 12.7647 70.9748 12.7647C68.7006 12.7647 66.4264 12.7647 64.1522 12.7647C64.1522 10.0457 64.1522 7.32674 64.1522 4.60779C67.1261 4.60779 69.9251 4.60779 73.074 4.60779C72.5492 5.19042 72.0244 5.77305 71.4996 6.35569C71.3246 6.5499 71.1497 6.35569 70.9748 6.35569C69.5753 6.35569 68.3507 6.35569 66.9512 6.35569C66.7763 6.35569 66.6013 6.35569 66.2515 6.35569C66.2515 6.93832 66.2515 7.32674 66.2515 7.71516C68.0008 7.71516 69.9251 7.71516 71.6745 7.71516C71.6745 7.71516 71.6745 7.71516 71.6745 7.90938C71.4996 8.2978 70.9748 8.68622 70.6249 9.26885C70.4499 9.46306 70.275 9.26885 70.1001 9.26885C68.8755 9.26885 67.651 9.26885 66.4264 9.26885C66.4264 9.85149 66.4264 10.2399 66.4264 10.6283C68.5256 10.8225 70.6249 10.8225 72.7241 11.0168C72.7241 10.8225 72.7241 10.8225 72.7241 11.0168Z" fill="#FFF200"/>
<path d="M12.5458 2.85992C13.2455 3.44256 13.9453 3.83098 14.4701 4.2194C14.645 4.41361 14.645 4.60782 14.645 4.80203C14.645 6.54993 14.645 8.29783 14.645 10.0457C14.645 10.2399 14.645 10.4342 14.645 10.8226C16.2195 10.8226 17.619 10.8226 19.1934 10.8226C19.1934 8.68626 19.1934 6.54993 19.1934 4.41361C19.8931 4.41361 20.5929 4.41361 21.4676 4.41361C21.4676 4.60782 21.4676 4.80203 21.4676 4.99625C21.4676 6.74414 21.4676 8.49204 21.4676 10.4342C21.4676 10.6284 21.2926 11.0168 21.1177 11.211C20.4179 12.5705 19.1934 12.9589 17.9688 12.7647C16.9192 12.5705 15.6947 12.7647 14.645 12.7647C14.4701 12.7647 14.1202 12.5705 13.9453 12.5705C12.7207 11.4052 12.3708 10.2399 12.3708 8.49204C12.5458 6.74414 12.5458 4.99625 12.5458 2.85992Z" fill="#FFF200"/>
<path d="M79.0219 9.85154C78.3221 10.6284 77.6224 11.4052 76.9227 12.1821C76.5728 12.5705 76.3978 12.5705 76.048 12.5705C75.3482 12.5705 74.8234 12.5705 74.1237 12.5705C75.3482 11.211 76.5728 9.85154 77.7973 8.49206C76.5728 7.13259 75.3482 5.77311 74.1237 4.41363C74.1237 4.41363 74.1237 4.21942 74.2986 4.21942C75.1733 4.21942 75.873 4.21942 76.7477 4.21942C76.9226 4.21942 76.9226 4.41363 77.0976 4.60784C77.7973 5.38469 78.4971 6.16153 79.1968 6.93838C79.8966 6.16153 80.5963 5.38469 81.2961 4.60784C81.2961 4.60784 81.471 4.41363 81.6459 4.41363C82.3457 4.41363 83.2204 4.41363 84.0951 4.41363C82.6956 5.77311 81.471 7.13259 80.2464 8.29785C81.471 9.65733 82.6956 11.0168 83.9201 12.3763V12.5705C83.0454 12.5705 82.3457 12.5705 81.471 12.5705C81.2961 12.5705 81.1211 12.3763 81.1211 12.1821C80.4214 11.5994 79.7216 10.8226 79.0219 9.85154Z" fill="#FFF200"/>
<path d="M47.1834 6.16153C47.1834 6.74417 47.1834 7.13259 47.1834 7.71522C48.9327 7.71522 50.857 7.71522 52.6064 7.71522C52.6064 7.71522 52.6064 7.71522 52.6064 7.90943C52.0816 8.49207 51.7317 8.88049 51.2069 9.26891C51.032 9.46312 50.857 9.46312 50.6821 9.46312C49.4575 9.46312 48.233 9.46312 47.0084 9.46312C47.0084 10.4342 47.0084 11.4052 47.0084 12.1821C47.0084 12.5705 46.8335 12.7647 46.4836 12.9589C45.9588 13.3473 45.2591 13.7358 44.7343 14.1242C44.7343 10.8226 44.7343 7.71522 44.7343 4.41364C47.7082 4.41364 50.5072 4.41364 53.656 4.41364C53.1312 4.99627 52.6064 5.5789 52.0816 6.16153C51.9067 6.35575 51.7317 6.16153 51.5568 6.16153C50.3322 6.16153 48.7578 6.16153 47.1834 6.16153Z" fill="#FFF200"/>
<path d="M93.8915 7.52095C93.8915 5.19041 93.8915 2.85988 93.8915 0.723561C94.4163 0.723561 94.9411 0.723561 95.4659 0.723561C95.6409 0.723561 95.6409 0.917772 95.8158 1.11198C96.5155 2.08304 97.2153 3.2483 97.915 4.21936C98.4398 3.2483 99.1396 2.47146 99.6644 1.50041C100.014 0.723561 100.539 0.335139 101.239 0.52935C101.414 0.52935 101.764 0.52935 101.939 0.52935C101.939 2.47146 101.939 4.41357 101.939 6.35568C101.414 6.35568 101.064 6.35568 100.364 6.35568C100.364 5.19041 100.364 4.02515 100.364 2.85988C100.364 2.85988 100.364 2.85988 100.189 2.85988C99.6644 3.63673 99.1396 4.41357 98.6148 5.19041C98.2649 5.57884 98.09 5.96726 97.5652 5.77305C97.3902 5.77305 97.0403 5.57884 96.8654 5.38463C96.3406 4.60778 95.8158 3.63673 95.116 2.85988C95.116 3.83094 95.116 4.80199 95.116 5.77305C95.116 6.35568 94.9411 6.54989 94.5912 6.7441C94.5912 6.93831 94.2414 7.13252 93.8915 7.52095Z" fill="#FFF200"/>
<path d="M56.9799 10.8226C59.0791 10.8226 61.1783 10.8226 63.4525 10.8226C62.9277 11.4052 62.4029 11.9878 61.8781 12.5705H61.7032C59.429 12.5705 57.1548 12.5705 54.8806 12.5705C54.8806 12.3763 54.8806 12.1821 54.8806 11.9878C54.8806 9.65731 54.8806 7.13257 54.8806 4.80203C54.8806 4.41361 55.0556 4.2194 55.2305 4.02519C55.7553 3.63677 56.2801 3.24835 56.9799 2.85992C56.9799 5.57888 56.9799 8.10362 56.9799 10.8226Z" fill="#FFF200"/>
<path d="M85.8444 0.529419C88.2935 0.529419 90.3927 0.529419 92.6669 0.529419H92.8418C92.317 1.30626 91.7922 1.8889 90.9175 1.69469C90.3927 1.69469 90.2178 1.8889 90.2178 2.47153C90.2178 3.6368 90.2178 4.80206 90.2178 5.96733C90.2178 6.35575 90.0428 6.54996 89.8679 6.74417C89.518 6.93838 89.1682 7.13259 88.8183 7.3268C88.8183 5.38469 88.8183 3.6368 88.8183 1.69469C88.2935 1.69469 87.7687 1.8889 87.2439 1.69469C86.719 1.50047 86.3692 1.11205 85.8444 0.529419Z" fill="#FFF200"/>
</svg>
